<svg width="153" height="34" viewBox="0 0 153 34" fill="none" xmlns="http://www.w3.org/2000/svg">
<path d="M23.9014 0.00537109H30.0629V6.01087H23.9014V0.00537109ZM23.9014 8.28559H30.0629V33.4614H23.9014V8.28559Z" fill="#242323"/>
<path d="M38.7621 33.4615H32.6006V8.28565H38.5591V12.934C40.4983 10.2252 43.2268 7.75269 46.9586 7.75269C47.652 7.75269 47.9958 7.80214 48.3961 7.89554V13.5604C47.9 13.4615 46.9586 13.4615 46.6034 13.4615C43.7736 13.4615 38.7564 16.0274 38.7564 21.0659V33.456L38.7621 33.4615Z" fill="#242323"/>
<path d="M50.0645 33.4615V0H61.0683C63.9715 0 73.8084 -5.23997e-07 73.8084 8.17033C73.8084 13.7857 69.3156 15.2912 67.0212 16.0659C69.6369 16.7528 74.6033 18.1209 74.6033 24.2857C74.6033 29.3517 70.6685 33.4615 61.8688 33.4615H50.0645ZM56.5191 13.6538H61.0627C66.9141 13.6538 67.4327 10.2308 67.4327 9.13187C67.4327 4.93407 62.985 4.93407 61.6264 4.93407H56.5191V13.6538ZM56.5191 28.533H60.5497C64.8565 28.533 67.9514 27.1648 67.9514 23.5604C67.9514 21.1868 66.6379 18.489 60.9781 18.489H56.5247V28.533H56.5191Z" fill="#242323"/>
<path d="M92.0051 33.4616L91.3061 30.7968C89.8179 32.1045 87.3826 33.9946 83.5098 33.9946C78.8873 33.9946 75.6064 31.088 75.6064 27.066C75.6064 24.4506 76.5535 21.4012 82.264 19.5111L89.6657 17.0935C90.7086 16.7528 90.81 16.7034 90.81 15.9781V14.9616C90.81 12.8297 88.8257 12.2034 86.4412 12.2034C82.3655 12.2034 78.6393 14.6264 77.1961 15.5935V10.3627C78.8366 9.44512 82.016 7.74731 87.3826 7.74731C95.3762 7.74731 96.9715 11.6649 96.9715 16.4616V33.4561H92.0051V33.4616ZM85.3476 22.7089C82.7601 23.6319 81.8694 24.7968 81.8694 26.588C81.8694 29.1045 84.1017 29.6374 85.201 29.6374C86.1931 29.6374 88.3297 29.3023 90.8157 26.8297V20.6319C90.4662 20.9231 90.3196 20.9726 89.226 21.3572L85.3532 22.7089H85.3476Z" fill="#242323"/>
<path d="M16.3987 33.4616L15.7053 30.7968C14.2114 32.1045 11.7762 33.9946 7.89775 33.9946C3.2865 33.9946 0 31.088 0 27.066C0 24.4506 0.947052 21.4012 6.65756 19.5111L14.0592 17.0935C15.0965 16.7528 15.2036 16.7034 15.2036 15.9781V14.9616C15.2036 12.8297 13.2137 12.2034 10.8291 12.2034C6.75903 12.2034 3.03283 14.6264 1.5897 15.5935V10.3627C3.23013 9.44512 6.40952 7.74731 11.7705 7.74731C19.7697 7.74731 21.3594 11.6649 21.3594 16.4616V33.4561H16.393L16.3987 33.4616ZM9.74676 22.7089C7.16491 23.6319 6.26859 24.7968 6.26859 26.588C6.26859 29.1045 8.50657 29.6374 9.59456 29.6374C10.5923 29.6374 12.7289 29.3023 15.2092 26.8297V20.6319C14.8597 20.9231 14.7132 20.9726 13.6139 21.3572L9.74676 22.7089Z" fill="#242323"/>
<path d="M105.669 0.00537109H99.5078V33.4614H105.669V0.00537109Z" fill="#242323"/>
<path d="M110.789 12.835H107.034V8.28559H110.789V0.00537109H116.95V8.28559H121.623V12.835H116.95V25.5713C116.95 27.412 117.204 29.1043 120.034 29.1043C120.778 29.1043 121.325 29.0109 121.821 28.912V33.4614C121.031 33.5603 120.18 33.6592 118.94 33.6592C112.085 33.6592 110.789 30.3131 110.789 25.912V12.835Z" fill="#242323"/>
<path d="M124.008 0.00537109H130.169V6.01087H124.008V0.00537109ZM124.008 8.28559H130.169V33.4614H124.008V8.28559Z" fill="#242323"/>
<path d="M152.504 15.0659C151.264 14.0494 149.274 12.4505 145.796 12.4505C140.53 12.4505 138.343 16.7637 138.343 20.8791C138.343 22.6208 138.839 29.3021 145.598 29.3021C149.127 29.3021 151.41 27.7472 153 26.6373V31.967C151.754 32.5988 148.975 33.9999 144.6 33.9999C135.806 33.9999 132.131 27.5549 132.131 20.8791C132.131 14.2032 136.156 7.75269 144.899 7.75269C149.121 7.75269 151.405 9.01093 152.498 9.59334V15.0659H152.504Z" fill="#242323"/>
</svg>
