<svg width="171" height="48" viewBox="0 0 171 48" fill="none" xmlns="http://www.w3.org/2000/svg">
<path d="M109.272 29.6521C108.78 32.1451 107.467 34.2661 105.33 36.0121C103.192 37.7581 100.859 38.6371 98.331 38.6461H79.7988L85.5976 9.35107H104.127C106.664 9.35107 108.649 10.2301 110.081 11.9881C111.513 13.7461 111.99 15.8671 111.507 18.3481C111.153 20.1361 109.956 22.0171 107.916 23.9971C109.171 25.9801 109.623 27.8671 109.272 29.6491V29.6521ZM102.456 29.6521C102.6 29.0821 102.465 28.4791 102.099 28.0201C101.727 27.5701 101.159 27.3211 100.569 27.3511H92.5872L93.9979 20.6581H101.882C102.542 20.6551 103.18 20.4151 103.675 19.9891C104.197 19.5781 104.551 18.9991 104.679 18.3571C104.823 17.7871 104.688 17.1841 104.322 16.7251C103.95 16.2781 103.382 16.0291 102.792 16.0591H91.0909L87.9427 31.9531H99.6562C100.316 31.9501 100.954 31.7131 101.449 31.2841C101.968 30.8761 102.325 30.3001 102.453 29.6611L102.456 29.6521Z" fill="#242323"/>
<path d="M134.754 38.649H109.192L114.991 9.354H140.55L139.227 16.053H120.484L119.575 20.655H134.058L132.732 27.348H118.249L117.339 31.953H136.082L134.757 38.643L134.754 38.649Z" fill="#242323"/>
<path d="M168.621 16.053H158.184L153.71 38.649H146.895L151.368 16.05H140.946L142.253 9.354H169.946L168.621 16.053Z" fill="#242323"/>
<path d="M33.0032 38.6491H26.1877L28.8137 25.3801L19.1583 38.6491H14.9017L10.4954 25.3861L7.87233 38.6491H1.05371L6.84939 9.35107H13.6741L19.2652 27.3481L31.9772 9.35107H38.805L33.0063 38.6461L33.0032 38.6491Z" fill="#242323"/>
<path d="M60.2685 38.649H34.707L40.5027 9.354H66.0642L64.7389 16.05H45.9961L45.0861 20.652H59.5692L58.247 27.348H43.7639L42.8509 31.95H61.5937L60.2715 38.643L60.2685 38.649Z" fill="#242323"/>
<path d="M83.7412 38.649H61.957L67.7649 9.354H74.5805L70.107 31.956H85.0634L83.7382 38.649H83.7412Z" fill="#242323"/>
</svg>
