<svg width="189" height="48" viewBox="0 0 189 48" fill="none" xmlns="http://www.w3.org/2000/svg">
<path d="M76.4473 31.5885C77.3383 30.6647 78.0387 29.5694 78.5074 28.3669C78.9762 27.1643 79.2037 25.8788 79.1768 24.5857C79.2053 23.2925 78.9791 22.0066 78.5116 20.8034C78.0441 19.6002 77.3446 18.5041 76.4542 17.5794C75.5918 16.6733 74.5588 15.9527 73.4166 15.4606C72.2744 14.9685 71.0464 14.7148 69.8058 14.7148C68.5651 14.7148 67.3371 14.9685 66.1949 15.4606C65.0528 15.9527 64.0197 16.6733 63.1574 17.5794C62.2658 18.5037 61.5648 19.5995 61.0955 20.8026C60.6262 22.0057 60.398 23.2919 60.4244 24.5857C60.3973 25.8782 60.6241 27.1632 61.0916 28.3656C61.5591 29.568 62.2578 30.6637 63.1469 31.5885C64.0075 32.4977 65.04 33.2211 66.1824 33.7152C67.3249 34.2093 68.5537 34.464 69.7954 34.464C71.037 34.464 72.2659 34.2093 73.4083 33.7152C74.5507 33.2211 75.5832 32.4977 76.4438 31.5885M59.5041 35.0211C58.1305 33.6697 57.0445 32.0463 56.3134 30.2513C55.5823 28.4563 55.2215 26.528 55.2536 24.5857C55.2503 22.6459 55.6247 20.7246 56.3551 18.9324C57.0855 17.1401 58.1575 15.5122 59.5094 14.1424C60.8614 12.7725 62.4666 11.6878 64.2328 10.9505C65.9989 10.2132 67.8911 9.83797 69.8006 9.84634C71.7154 9.81122 73.6171 10.1746 75.3884 10.9142C77.1598 11.6538 78.7634 12.7539 80.1005 14.1468C81.472 15.5002 82.556 17.1247 83.2859 18.9201C84.0157 20.7154 84.3759 22.6436 84.3441 24.5857C84.376 26.5274 84.0159 28.4551 83.286 30.2498C82.5562 32.0446 81.472 33.6685 80.1005 35.0211C77.3617 37.78 73.661 39.3279 69.804 39.3279C65.9471 39.3279 62.2464 37.78 59.5076 35.0211M91.7721 23.0793H94.0016C95.7449 23.0793 97.0518 22.7536 97.9223 22.1021C98.7974 21.453 99.2349 20.4828 99.2349 19.1775C99.2349 17.8722 98.7974 16.9021 97.9223 16.2459C97.0471 15.5897 95.7449 15.2616 94.0016 15.2616H91.7721V23.0793ZM86.6048 10.379H93.9842C97.2949 10.379 99.8588 11.114 101.676 12.584C103.494 14.0539 104.402 16.1295 104.402 18.8106C104.402 21.8281 103.528 24.1024 101.78 25.6335C100.032 27.1646 97.4419 27.9325 94.0086 27.9372H91.7721V38.7677H86.6048V10.379ZM110.358 15.2475H105.184V10.3932H120.703V15.2616H115.529V38.7818H110.358V15.2475ZM123.464 10.379H128.638V38.7677H123.464V10.379ZM139.098 33.9134H141.806C143.501 33.9134 144.774 33.597 145.626 32.9644C146.474 32.3364 146.901 31.4015 146.901 30.1421C146.901 28.8827 146.446 27.9372 145.536 27.3198C144.626 26.7024 143.258 26.3708 141.435 26.3708H139.108L139.098 33.9134ZM139.098 21.5024H140.935C142.383 21.5024 143.466 21.2413 144.192 20.7227C144.553 20.4606 144.843 20.1093 145.034 19.7019C145.225 19.2946 145.31 18.8446 145.283 18.3943C145.31 17.9416 145.225 17.4892 145.034 17.0791C144.843 16.6689 144.554 16.3144 144.192 16.0483C143.466 15.5262 142.383 15.2616 140.935 15.2616H139.098V21.5024ZM133.923 10.3932H140.928C143.824 10.3932 146.139 11.0646 147.873 12.4076C148.703 13.025 149.372 13.8385 149.823 14.7777C150.274 15.717 150.493 16.7537 150.46 17.7981C150.485 18.8114 150.261 19.8149 149.809 20.7184C149.356 21.6218 148.69 22.3968 147.87 22.9735L147.359 23.3263C148.015 23.6141 148.637 23.9763 149.214 24.4058C150.124 25.0535 150.861 25.9205 151.361 26.9289C151.86 27.9374 152.106 29.056 152.075 30.1844C152.075 32.7997 151.142 34.8859 149.276 36.4428C147.41 37.9998 144.92 38.7783 141.806 38.7783H133.923V10.3932ZM155.409 38.7818V10.3932H170.393V15.2616H160.587V22.3173H169.921V27.1893H160.587V33.9134H170.393V38.7818H155.409ZM178.061 15.2616H172.89V10.3932H188.41V15.2616H183.235V38.7818H178.061V15.2616ZM22.8188 2.04272C18.4293 2.04272 14.1384 3.36506 10.4886 5.8425C6.83885 8.31994 3.99421 11.8412 2.31441 15.9611C0.634616 20.0809 0.195104 24.6143 1.05146 28.9879C1.90781 33.3615 4.02157 37.3789 7.12543 40.5321C10.2293 43.6852 14.1839 45.8326 18.489 46.7025C22.7942 47.5725 27.2567 47.126 31.312 45.4195C35.3674 43.713 38.8336 40.8232 41.2723 37.1154C43.711 33.4077 45.0127 29.0485 45.0127 24.5892C45.0044 18.6121 42.6635 12.8822 38.5031 8.65573C34.3428 4.42925 28.7025 2.05112 22.8188 2.04272ZM22.8188 41.9322C19.4425 41.9315 16.1422 40.9137 13.3353 39.0077C10.5283 37.1016 8.34075 34.3927 7.04917 31.2237C5.7576 28.0546 5.42001 24.5676 6.07912 21.2036C6.73822 17.8397 8.36441 14.7498 10.7521 12.3247C13.1397 9.89959 16.1816 8.24819 19.4931 7.57929C22.8046 6.9104 26.2369 7.25405 29.3561 8.5668C32.4754 9.87955 35.1414 12.1024 37.0171 14.9544C38.8928 17.8064 39.8939 21.1593 39.8939 24.5892C39.8884 29.1872 38.0881 33.5952 34.8877 36.8464C31.6873 40.0976 27.3483 41.9266 22.8223 41.9322" fill="#242323"/>
<path fill-rule="evenodd" clip-rule="evenodd" d="M22.8226 7.24609C19.4462 7.24609 16.1455 8.26324 13.3381 10.1689C10.5307 12.0746 8.3426 14.7832 7.05049 17.9522C5.75837 21.1212 5.4203 24.6083 6.07901 27.9725C6.73772 31.3367 8.36364 34.4269 10.7512 36.8523C13.1387 39.2778 16.1805 40.9296 19.4921 41.5987C22.8037 42.2679 26.2362 41.9245 29.3557 40.6118C32.4751 39.2992 35.1413 37.0763 37.0172 34.2243C38.893 31.3722 39.8943 28.0191 39.8943 24.589C39.8888 19.9911 38.0884 15.5831 34.888 12.3319C31.6876 9.08069 27.3486 7.2517 22.8226 7.24609ZM22.8226 36.7284C20.4592 36.7284 18.1489 36.0164 16.1839 34.6825C14.2188 33.3486 12.6872 31.4527 11.7828 29.2346C10.8783 27.0164 10.6417 24.5756 11.1028 22.2208C11.5638 19.866 12.7019 17.7029 14.3731 16.0052C16.0442 14.3075 18.1734 13.1513 20.4914 12.6829C22.8094 12.2145 25.212 12.4549 27.3955 13.3737C29.579 14.2925 31.4452 15.8485 32.7582 17.8448C34.0713 19.8411 34.7721 22.1881 34.7721 24.589C34.7684 27.8074 33.5083 30.893 31.2681 33.1687C29.0279 35.4445 25.9907 36.7246 22.8226 36.7284Z" fill="#242323"/>
<path d="M22.8224 31.5248C24.1727 31.5248 25.4927 31.1181 26.6154 30.356C27.7381 29.5939 28.6132 28.5106 29.13 27.2433C29.6467 25.9759 29.7819 24.5814 29.5185 23.236C29.255 21.8906 28.6048 20.6547 27.65 19.6848C26.6952 18.7148 25.4787 18.0542 24.1543 17.7866C22.83 17.519 21.4572 17.6563 20.2097 18.1813C18.9622 18.7062 17.8959 19.5952 17.1457 20.7358C16.3955 21.8764 15.9951 23.2173 15.9951 24.5891C15.997 26.428 16.7168 28.191 17.9968 29.4913C19.2768 30.7917 21.0122 31.523 22.8224 31.5248Z" fill="#242323"/>
<path d="M22.8225 12.4497C20.4591 12.4497 18.1488 13.1617 16.1837 14.4956C14.2187 15.8294 12.6871 17.7254 11.7827 19.9435C10.8782 22.1617 10.6416 24.6025 11.1027 26.9573C11.5637 29.3121 12.7018 31.4752 14.373 33.1729C16.0441 34.8706 18.1733 36.0268 20.4913 36.4952C22.8093 36.9636 25.2119 36.7232 27.3954 35.8044C29.5788 34.8856 31.4451 33.3296 32.7581 31.3333C34.0711 29.337 34.772 26.99 34.772 24.5891C34.7683 21.3706 33.5081 18.2851 31.268 16.0094C29.0278 13.7336 25.9906 12.4534 22.8225 12.4497ZM22.8225 31.5248C21.4722 31.5248 20.1522 31.118 19.0295 30.3559C17.9067 29.5938 17.0317 28.5106 16.5149 27.2433C15.9982 25.9759 15.863 24.5814 16.1264 23.236C16.3899 21.8906 17.0401 20.6547 17.9949 19.6847C18.9497 18.7147 20.1662 18.0542 21.4906 17.7866C22.8149 17.5189 24.1877 17.6563 25.4352 18.1812C26.6827 18.7062 27.749 19.5952 28.4992 20.7358C29.2494 21.8763 29.6498 23.2173 29.6498 24.5891C29.6479 26.428 28.928 28.191 27.6481 29.4913C26.3681 30.7916 24.6326 31.523 22.8225 31.5248Z" fill="white"/>
</svg>
