<svg width="142" height="60" viewBox="0 0 142 60" fill="none" xmlns="http://www.w3.org/2000/svg">
<g clip-path="url(#clip0_258_95)">
<path d="M47.3429 21.3425C43.5125 22.1546 44.3504 24.0666 42.6406 24.2038V22.4024C40.365 21.8839 38.7094 22.0888 36.617 23.1745C35.3886 30.3125 35.0738 36.0513 35.5688 43.0064C36.0948 43.7765 36.4513 44.7106 37.6787 44.6353L42.6406 44.6258V41.7197C42.6406 38.4504 44.4909 29.7835 48.6236 28.2833C49.3763 28.0097 50.0205 27.9573 51.0038 27.7934C54.5881 27.2005 53.6649 22.41 50.5252 21.3197C50.0825 21.1652 49.6301 21.1042 49.1757 21.1042C48.5625 21.1052 47.9445 21.2158 47.3429 21.3425Z" fill="#242323"/>
<path d="M90.3125 23.9494V22.6608C90.3125 22.067 90.1294 21.8897 89.5249 21.8897C87.7308 21.8897 86.2612 22.2633 84.5466 22.4025C82.8755 29.4557 82.4521 35.6101 82.4521 43.0065L83.0082 43.6651C85.5172 44.3542 86.0016 44.5515 89.0008 44.5515C89.5908 44.5515 89.5763 44.3456 90.049 44.0359C90.049 40.3491 92.5745 28.0699 97.6459 28.0699C101.057 28.0699 99.1726 41.329 98.974 43.2524C101.751 45.7344 103.729 43.139 103.671 43.0065L103.73 28.5779C103.353 25.2581 101.651 20.8594 96.8593 20.8594C93.1102 20.8594 92.5445 23.1536 90.3125 23.9494Z" fill="#242323"/>
<path d="M109.712 26.2848C103.232 33.6954 105.839 43.9302 115.719 44.5526C117.551 44.5526 118.871 43.8044 120.173 43.0076C120.362 45.0654 120.362 47.127 120.173 49.1877C120.173 55.406 113.188 56.3887 108.645 57.4276V58.9745C108.645 59.576 109.082 60.003 109.695 60.003C115.642 60.003 122.242 58.4941 125.197 52.5837C128.872 45.2436 126.817 37.04 126.196 29.3586C126.126 28.4026 126.458 27.7612 127.244 27.5553V26.524C125.038 26.3448 123.163 24.979 120.433 24.979C119.158 28.4417 119.449 38.2152 113.36 37.9798C107.056 37.9798 114.853 18.51 122.266 22.9202H122.79C124.493 22.9202 124.364 21.928 124.364 20.6012C123.257 20.3496 122.202 20.2295 121.186 20.2295C116.586 20.2295 112.862 22.6771 109.712 26.2848Z" fill="#242323"/>
<path d="M14.0878 45.8404C15.1418 45.8404 16.2239 45.9023 17.273 45.8289C31.0853 44.8443 40.0975 16.9565 27.4777 12.7817C26.5778 12.4844 25.4473 12.5616 24.5027 12.6302C22.2853 12.7979 19.9274 14.6099 19.0914 15.9871C17.8872 17.9687 17.0386 19.8817 16.9717 22.9193C18.9296 26.0208 21.0889 21.9319 22.8443 20.1867L22.9954 19.3126C22.9954 16.5571 27.3024 17.3806 27.7112 19.0543C29.5305 26.5145 24.5425 42.2299 14.7223 38.769C2.87752 34.5962 10.5025 14.9282 18.7368 10.9994C20.1589 10.8936 21.4735 10.9269 22.6563 10.9603C26.5758 11.0728 29.02 11.1852 29.02 6.17936C29.02 3.03782 23.6222 -0.00268555 20.1153 -0.00268555H19.3306C19.258 -0.00268555 19.1873 -0.00268555 19.1146 -0.00268555C-1.41595 -0.000779272 -8.78032 44.3659 14.0878 45.8404Z" fill="#242323"/>
<path d="M144.582 32.238C152.304 29.8723 151.621 20.3448 143.485 20.3448C143.326 20.3381 143.171 20.3362 143.016 20.3362C134.526 20.3381 130.653 27.235 130.509 32.8328C130.498 33.1826 130.315 33.479 130.172 33.7392L129.868 36.2965L130.911 36.8274C130.42 45.0796 144.518 50.1789 146.889 43.262V41.9753C141.285 40.9268 137.459 38.9653 137.459 32.7031C139.866 32.7041 142.234 32.9557 144.582 32.238ZM137.722 29.614C138.919 22.2882 143.701 22.5942 145.029 24.6653C146.19 26.4792 144.59 29.6684 139.014 29.6684C138.605 29.6684 138.174 29.6502 137.722 29.614Z" fill="#242323"/>
<path d="M77.6446 20.4525L71.7121 20.3447C71.4495 21.3131 71.1444 21.0529 70.5118 21.1797C69.4278 21.1797 68.0173 19.8291 65.951 19.8291C62.9343 19.8291 59.6328 21.8793 57.6682 24.0439C54.513 27.5276 52.655 33.4475 53.861 38.0998C56.4931 48.2393 69.2195 46.6704 71.4641 42.0382L71.4786 42.0944L73.3018 45.6191C73.5759 46.1548 73.5953 46.1385 74.2211 46.0385C75.8641 45.7811 77.4422 44.6612 78.2084 43.4145C78.9408 40.1548 78.1668 25.0037 77.6446 20.4525ZM70.7443 37.0142C70.0555 39.1168 68.7002 40.4131 67.0582 41.0393C66.1185 41.3948 65.2573 41.5616 64.4717 41.5616C63.0283 41.5616 61.8377 40.9983 60.8815 40.0061C55.8431 34.7772 63.3402 25.6575 69.5314 25.4545C70.1379 25.4335 70.7646 25.5108 71.4495 25.7509V29.8723C71.4495 31.2286 71.5232 34.6313 70.7443 37.0142Z" fill="#242323"/>
</g>
<defs>
<clipPath id="clip0_258_95">
<rect width="150" height="60" fill="white"/>
</clipPath>
</defs>
</svg>
