<svg width="219" height="24" viewBox="0 0 219 24" fill="none" xmlns="http://www.w3.org/2000/svg">
<g clip-path="url(#clip0_258_150)">
<path d="M37.6525 5.97113C37.7745 5.55221 38.1437 5.31543 38.5754 5.31543H47.3723C48.2952 5.31543 48.7863 5.79203 48.7863 6.68755V9.01591C48.7863 9.43483 48.4172 9.79304 47.9854 9.79304H47.9229C47.0626 9.79304 47.2472 8.002 45.6454 8.002H43.4931C43.246 8.002 43.002 8.1811 43.002 8.4786V12.7164C43.002 12.9562 43.1866 13.193 43.4931 13.193H44.9072C46.5057 13.193 46.3212 11.4019 47.1846 11.4019C47.6163 11.3412 48.0449 11.6994 48.0449 12.1184V16.8358C48.0449 17.2547 47.6757 17.6129 47.244 17.6129H47.1815C46.3212 17.6129 46.5057 15.8219 44.904 15.8219H43.49C43.2429 15.8219 43.0583 16.0617 43.0583 16.2985V20.1204C43.0583 20.3602 43.2429 20.597 43.5495 20.597H46.0115C47.488 20.6577 47.9198 19.0458 48.9021 19.4616C50.0095 19.9382 49.7029 20.5363 49.7029 20.5363L48.78 22.1482L48.5955 22.5064C48.3483 22.983 47.8572 23.2228 47.3035 23.2228H38.6286C38.1968 23.2228 37.8277 22.983 37.6431 22.5671C37.5211 22.0905 37.7057 21.7323 38.5034 21.2527C39.1791 21.0129 39.6109 20.3572 39.6109 19.7015V8.83681C39.6109 8.12039 39.1791 7.52236 38.5034 7.22487C37.7026 6.80594 37.518 6.44773 37.6431 5.97113H37.6525Z" fill="#242323"/>
<path d="M54.142 5.97113C54.264 5.55221 54.6331 5.31543 55.0648 5.31543H64.7252C65.648 5.31543 66.1392 5.79203 66.1392 6.68755V9.01591C66.1392 9.43483 65.77 9.79304 65.3383 9.79304H65.2757C64.4154 9.79304 64.6 8.002 62.9983 8.002H59.9826C59.7354 8.002 59.4914 8.1811 59.4914 8.4786V12.7164C59.4914 12.9562 59.676 13.193 59.9826 13.193H61.3372C62.9357 13.193 62.7512 11.4019 63.6146 11.4019C64.0463 11.3412 64.4749 11.6994 64.4749 12.1184V16.8358C64.4749 17.2547 64.1057 17.6129 63.674 17.6129H63.6115C62.7512 17.6129 62.9357 15.8219 61.334 15.8219H59.92C59.6729 15.8219 59.4883 16.0617 59.4883 16.2985V19.7622C59.4883 20.3602 59.8574 20.8975 60.4112 21.1343L60.5957 21.2527C61.3966 21.7293 61.5812 22.0298 61.456 22.5671C61.334 22.9861 60.9649 23.2228 60.5332 23.2228H55.118C54.6863 23.2228 54.3171 22.983 54.1951 22.5671C54.0731 22.0905 54.2577 21.7323 55.0554 21.2527C55.7312 21.0129 56.1629 20.3572 56.1629 19.6407V8.83681C56.1629 8.23878 55.8563 7.70147 55.362 7.40397C55.24 7.34326 55.1774 7.28558 55.0554 7.22487C54.1951 6.80594 54.0106 6.44773 54.1326 5.97113H54.142Z" fill="#242323"/>
<path d="M145.997 10.0299V10.6279C145.997 10.8677 146.181 11.1045 146.488 11.1045H148.212C150.242 11.1045 152.579 10.2697 152.579 7.16418C152.579 4.29851 151.102 2.62585 148.456 2.62585C148.208 2.62585 147.226 2.62585 146.425 2.68657C146.178 2.68657 145.994 2.92638 145.994 3.16317V10.0299H145.997ZM149.626 0.0607134H150.364C151.471 0 152.579 0.300531 153.564 0.837845C155.288 1.91247 156.086 3.94333 156.086 6.50847C156.086 7.28561 155.964 8.0597 155.594 8.83683C154.856 10.4488 153.627 11.8209 152.088 12.7164C152.046 12.7569 152.025 12.7964 152.025 12.8348C152.025 13.2537 152.088 13.6696 152.147 14.0885C152.638 16.9542 155.038 20.7761 157.806 21.9084C158.545 22.2666 159.036 22.385 159.098 22.9223C159.098 23.0407 159.098 23.1014 159.036 23.2198C158.851 23.6964 158.36 23.997 157.806 23.997C154.606 23.997 151.962 21.3711 150.361 18.8029C149.316 17.2517 148.515 15.6398 147.899 13.8487C147.899 13.7303 147.777 13.6696 147.652 13.6696C147.16 13.7303 146.976 13.7303 146.544 13.7303C146.297 13.7303 146.053 13.9094 146.053 14.2069V19.999C146.053 20.597 146.422 21.1343 146.976 21.3711C147.038 21.4318 147.098 21.4318 147.16 21.4895C147.961 21.9661 148.146 22.3243 148.021 22.8039C147.899 23.2229 147.53 23.4597 147.035 23.4597H141.007C140.575 23.4597 140.206 23.2198 140.022 22.8039C139.9 22.3273 140.084 21.9691 140.882 21.4895C141.558 21.2497 141.989 20.594 141.989 19.8776V3.58209C141.989 1.79104 139.837 2.03086 139.837 1.01391C139.774 0.537313 140.144 0.0576777 140.638 0H140.76L149.619 0.0607134H149.626Z" fill="#242323"/>
<path d="M27.501 19.8199C27.5635 20.6547 28.1767 21.0129 28.671 21.3135C29.4092 21.7324 29.5938 22.0906 29.4718 22.5672C29.3498 22.9861 28.9807 23.2229 28.4864 23.2229H22.8866C22.4549 23.2229 22.0858 22.9831 21.9012 22.5672C21.7792 22.0906 21.9638 21.7324 22.6395 21.3135C23.1932 21.016 23.8689 20.6578 23.8689 19.6408V8.41794C23.8689 8.17812 23.6844 7.94134 23.3778 7.94134H20.9783C19.3172 7.94134 19.2546 8.95525 18.3318 8.95525C17.4089 8.95525 17.656 8.23883 17.656 8.23883L18.3318 5.97119C18.5163 5.31548 19.4392 5.25477 19.7458 5.25477H32.7284C32.7284 5.25477 33.8359 5.19406 33.7139 5.97119L33.0976 8.23883C33.035 8.65776 32.6659 8.95525 32.2373 8.95525C31.1924 8.95525 32.1747 7.94134 30.5136 7.94134H27.8075C27.5604 7.94134 27.3164 8.12044 27.3164 8.41794L27.501 19.8199Z" fill="#242323"/>
<path d="M166.056 5.3125H168.087C168.518 5.3125 168.887 5.55232 169.072 5.9682C169.194 6.4448 169.009 6.80301 168.212 7.28265C168.09 7.34336 168.027 7.40104 167.905 7.46175C167.414 7.75925 167.104 8.29656 167.104 8.89459V19.8807C167.104 20.4787 167.473 20.9553 167.965 21.2528L168.149 21.3712C168.95 21.8478 169.135 22.1483 169.009 22.6856C168.887 23.1046 168.518 23.3413 168.087 23.3413H162.734C162.302 23.3413 161.933 23.0438 161.811 22.6856C161.689 22.209 161.874 21.8508 162.671 21.3712C163.347 21.1314 163.779 20.4757 163.779 19.82V8.83691C163.716 8.23889 163.41 7.76229 162.856 7.46479L162.671 7.3464C161.871 6.8698 161.686 6.56927 161.811 6.03195C161.933 5.61303 162.302 5.37625 162.734 5.37625L166.056 5.31554V5.3125Z" fill="#242323"/>
<path d="M186.481 6.50839C186.728 6.68749 186.972 6.92731 187.034 7.2248L187.957 9.91137C187.957 9.91137 188.264 10.9253 186.972 10.9253C185.68 10.9253 185.248 9.73227 183.587 8.77603L182.911 8.41782C181.926 7.94122 180.881 7.70141 179.836 7.64069C177.374 7.64069 175.528 10.0298 175.528 12.6556C175.528 17.4914 180.021 20.2387 183.28 20.2387C184.879 20.2387 186.296 19.3432 186.972 17.9104C187.156 17.373 187.957 17.7313 188.017 18.6268V20.6576C188.017 20.7184 187.954 20.8367 187.895 20.8975C186.171 22.391 183.956 23.2258 181.682 23.2258C175.838 23.2258 172.516 18.8666 172.516 14.0915C172.516 9.31638 176.639 5.25466 181.682 5.31537H181.804C183.402 5.31537 185.004 5.73429 186.481 6.50839Z" fill="#242323"/>
<path d="M206.046 6.50837C206.293 6.68747 206.537 6.92729 206.6 7.22479L207.523 9.91136C207.523 9.91136 207.829 10.9253 206.6 10.9253C205.37 10.9253 204.876 9.73225 203.215 8.77601L202.539 8.41781C201.554 7.94121 200.509 7.70139 199.464 7.64067C197.002 7.64067 195.156 10.0297 195.156 12.6556C195.156 17.4914 199.648 20.2387 202.908 20.2387C204.507 20.2387 205.924 19.3432 206.6 17.9103C206.784 17.373 207.585 17.7312 207.645 18.6268V20.6576C207.645 20.7183 207.582 20.8367 207.523 20.8974C205.799 22.391 203.584 23.2258 201.31 23.2258C195.466 23.2258 192.144 18.8666 192.144 14.0915C192.144 9.31636 196.267 5.25464 201.25 5.25464H201.372C202.971 5.31535 204.632 5.73124 206.049 6.50837H206.046Z" fill="#242323"/>
<path d="M13.596 2.44669C13.7806 2.62579 13.9026 2.86561 13.9026 3.16311V5.96806C13.9026 5.96806 13.9026 6.86359 12.8577 6.56609C11.8128 6.2686 11.7503 5.19397 10.5803 4.05863L10.0891 3.58203C9.4134 2.984 8.61254 2.5074 7.75225 2.20991C7.2611 2.09152 6.70738 2.0308 6.2131 2.09152C4.61451 2.38901 3.50708 3.70346 3.75109 5.197C4.73652 10.3303 15.132 9.67462 15.132 16.8995C15.132 20.9582 11.0714 23.1682 7.56455 23.1682C5.53425 23.1682 -0.00292969 22.0328 -0.00292969 19.5254C-0.00292969 19.4646 0.797928 16.4199 1.72079 15.7642C2.39651 15.2876 3.31938 15.406 3.81366 16.0617C3.87622 16.1801 3.99823 16.3015 3.99823 16.4806C3.99823 16.8388 3.50708 18.0318 3.50708 18.39C3.50708 20.9582 7.13596 20.8975 7.63024 20.8975C9.35396 20.8975 11.6908 19.8229 11.6908 18.0925C11.6908 13.0776 0.923061 13.6756 0.801056 5.61593C0.738489 2.38901 2.76879 0.834748 5.41537 0.297435C6.21623 0.118331 7.01396 0.0576172 7.81481 0.0576172H8.06195C8.67824 0.0576172 9.29139 0.176008 9.90768 0.355113C11.3843 0.713322 12.6137 1.42974 13.5991 2.44365L13.596 2.44669Z" fill="#242323"/>
<path d="M105.207 5.31232H107.237C107.669 5.31232 108.038 5.55213 108.16 5.96802C108.282 6.44462 108.097 6.80283 107.299 7.28247C107.237 7.34318 107.115 7.40086 107.052 7.40086C106.499 7.69835 106.192 8.23567 106.192 8.83369V22.0874C106.192 23.3412 104.162 23.4595 103.545 22.8038L103.361 22.6855L93.7004 11.6994C93.3939 11.3412 93.1467 11.8178 93.1467 12.0576V19.7591C93.2093 20.6546 93.8225 20.9521 94.3762 21.2526C95.1145 21.6715 95.299 22.0297 95.1145 22.5063C94.9925 22.9253 94.6233 23.1621 94.1916 23.1621H89.3927C88.961 23.1621 88.5919 22.9222 88.4698 22.5063C88.3478 22.0297 88.5324 21.6715 89.3301 21.1919C89.8839 20.9521 90.3156 20.4755 90.4376 19.8198V8.65762C90.4376 8.0596 90.0684 7.583 89.5773 7.2855L89.3927 7.16711C88.5919 6.69051 88.4073 6.38998 88.5324 5.85267C88.6544 5.49446 89.0236 5.25464 89.4553 5.25464H94.7453C95.177 5.25464 95.4836 5.55213 95.4836 5.97106V6.03177C95.4836 6.74819 94.6233 6.68747 95.299 7.583L95.9748 8.36013L102.989 16.3591C103.295 16.6566 103.542 16.2407 103.542 16.0009V8.65762C103.542 8.12031 103.173 7.583 102.682 7.34318C102.619 7.28247 102.56 7.22479 102.435 7.22479C101.634 6.74819 101.449 6.44766 101.575 5.91034C101.697 5.55213 102.066 5.25464 102.497 5.25464H105.203V5.31535L105.207 5.31232Z" fill="#242323"/>
<path d="M216.012 5.3125H218.043C218.474 5.3125 218.844 5.55232 218.966 5.9682C219.088 6.4448 218.903 6.80301 218.105 7.28265C217.983 7.34336 217.921 7.40104 217.799 7.46175C217.308 7.75925 216.998 8.29656 216.998 8.89459V19.8807C216.998 20.4787 217.367 20.9553 217.858 21.2528L218.043 21.3712C218.844 21.8478 219.028 22.1483 218.903 22.6856C218.781 23.1046 218.412 23.3413 217.98 23.3413H212.628C212.196 23.3413 211.827 23.1015 211.705 22.6856C211.583 22.209 211.767 21.8508 212.565 21.3712C213.241 21.1314 213.672 20.4757 213.672 19.7592V8.7762C213.61 8.17817 213.303 7.70157 212.75 7.40408L212.565 7.28569C211.764 6.80909 211.58 6.50855 211.705 5.97124C211.827 5.55232 212.196 5.31554 212.628 5.31554H216.012V5.3125Z" fill="#242323"/>
<path d="M73.7074 7.34326C73.6657 7.30278 73.625 7.28254 73.5854 7.28254C73.5228 7.22183 73.4634 7.22183 73.4008 7.16415C72.7251 6.74523 72.6 6.44773 72.7251 5.97113C72.8471 5.55221 73.2163 5.31543 73.648 5.31543H79.4917C79.9234 5.31543 80.2926 5.55525 80.4146 5.97113C80.5366 6.44773 80.4146 6.74827 79.7389 7.16415C79.6763 7.22487 79.6169 7.22487 79.5543 7.28254C79.4917 7.28254 79.4917 7.34326 79.4323 7.34326C79.1852 7.52236 79.0632 7.88057 79.2477 8.41788L79.4949 9.07359L82.8797 19.6407C83.496 21.79 85.032 21.192 85.032 22.2089C85.0946 22.6855 84.7255 23.1652 84.2312 23.2228H79.4323C79.0006 23.2228 78.6314 22.983 78.5094 22.5671C78.3874 22.0905 78.572 21.7323 79.2477 21.3134C79.3697 21.2527 79.4323 21.195 79.4949 21.1343L79.6169 21.0159C79.8014 20.8368 79.8014 20.597 79.7389 20.3602L78.5094 16.1224C78.4469 15.9433 78.2623 15.8249 78.0183 15.8249H74.4488C74.2643 15.8249 74.0797 15.9433 73.9577 16.1224L72.7282 20.3602C72.6062 20.6 72.6657 20.9582 72.9128 21.0766C72.9754 21.1373 73.0348 21.1373 73.0348 21.195C73.8357 21.6716 74.0203 21.9721 73.8951 22.5095C73.7731 22.9284 73.404 23.1652 72.9723 23.1652H69.2808C68.8491 23.2259 68.4205 22.9253 68.2954 22.5095C68.1734 22.0329 68.2954 21.7323 68.9117 21.3741C69.0337 21.3134 69.1588 21.2557 69.2182 21.195C69.3402 21.1343 69.4654 21.0159 69.5248 20.9552C69.894 20.597 70.1411 20.1204 70.2631 19.6407L73.0943 10.7462L73.8325 8.41788C74.0797 7.88057 73.9546 7.52236 73.7105 7.34326H73.7074ZM77.5209 13.1353V13.0746L76.3509 8.77609C76.3509 8.71538 76.2883 8.71538 76.2289 8.71538C76.1694 8.71538 76.1663 8.71538 76.1069 8.77609L74.8774 13.0746C74.8149 13.2537 74.94 13.4328 75.062 13.4328H77.2143C77.3989 13.4328 77.5209 13.3144 77.5209 13.1353Z" fill="#242323"/>
<path d="M118.311 7.64078C115.849 7.64078 114.004 10.0299 114.004 12.6557C114.004 17.4915 118.496 20.2388 121.756 20.2388C124.093 20.2388 125.938 18.4478 125.938 15.4637C125.938 10.8677 121.387 7.64382 118.308 7.64382L118.311 7.64078ZM120.22 5.31242C125.266 5.25171 129.386 9.19201 129.511 14.0278C129.573 19.0428 125.513 23.1622 120.345 23.2229H120.16C114.316 23.2229 110.994 18.8637 110.994 14.0885C110.994 9.31344 115.117 5.25171 120.101 5.25171C120.163 5.31242 120.223 5.31242 120.223 5.31242H120.22Z" fill="#242323"/>
</g>
<defs>
<clipPath id="clip0_258_150">
<rect width="219" height="24" fill="white"/>
</clipPath>
</defs>
</svg>
