<svg width="243" height="44" viewBox="0 0 243 44" fill="none" xmlns="http://www.w3.org/2000/svg">
<g clip-path="url(#clip0_258_70)">
<path d="M10.6381 0.72583C4.76304 0.72583 0 5.49154 0 11.3708V32.4629C0 38.3421 4.76304 43.1083 10.6381 43.1083H31.7166C37.592 43.1083 42.3551 38.3421 42.3551 32.4629V11.3708C42.3551 5.49154 37.592 0.72583 31.7166 0.72583" fill="#242323"/>
<path d="M23.7528 17.5945C25.2032 17.5945 26.3789 16.418 26.3789 14.9667C26.3789 13.5154 25.1979 12.3271 23.741 12.3271H18.1991V6.74487H12.3053V8.63531C12.3053 9.83623 11.975 10.7512 11.3154 11.3815C10.6553 12.0118 9.72536 12.3271 8.52602 12.3271H8.07617V17.5945H12.3053V28.3991C12.3053 31.1604 13.0625 33.2992 14.5774 34.8142C16.0915 36.3301 18.2285 37.0874 20.9884 37.0874C21.2223 37.0874 22.5176 37.0886 23.7867 37.0891C23.7883 37.0891 23.7896 37.0891 23.7912 37.0891C25.2203 37.0891 26.3789 35.9298 26.3789 34.4997C26.3789 33.0696 25.2203 31.9104 23.7912 31.9104H22.4739C22.4045 31.9104 22.3571 31.9104 22.3379 31.9104C21.3778 31.9104 20.5904 31.7605 19.976 31.4598C19.3608 31.1604 18.911 30.7246 18.6261 30.1547C18.3407 29.5849 18.1987 28.8942 18.1987 28.0838V17.5945H23.7528Z" fill="white"/>
<path d="M32.067 17.562C33.5026 17.3289 34.4776 15.9754 34.2446 14.5389C34.0116 13.1024 32.659 12.1268 31.2234 12.3599C29.7878 12.593 28.8129 13.9465 29.0458 15.3831C29.2788 16.8196 30.6314 17.7951 32.067 17.562Z" fill="white"/>
<path d="M89.0732 16.2741C88.1727 15.2941 87.0807 14.5254 85.7965 13.9686C84.5118 13.4127 83.0227 13.1345 81.329 13.1345C79.3165 13.1345 77.4967 13.6251 75.8683 14.6046C74.24 15.5854 72.9557 16.9162 72.016 18.5987C71.0759 20.2812 70.6064 22.2084 70.6064 24.3807C70.6064 26.4738 71.0694 28.3814 71.9964 30.1027C72.9227 31.8252 74.2204 33.1891 75.8883 34.196C77.5563 35.2029 79.5022 35.7058 81.7262 35.7058C83.2088 35.7058 84.5657 35.4807 85.7969 35.0302C87.0281 34.5804 88.0935 33.9575 88.994 33.163C89.8937 32.3681 90.5559 31.4539 90.9796 30.4209L88.6128 29.2592C87.6473 28.7853 86.5011 28.9724 85.7112 29.7024C85.4369 29.9556 85.1348 30.1819 84.8041 30.3813C83.9701 30.8845 82.9574 31.1361 81.7662 31.1361C80.575 31.1361 79.5227 30.8584 78.6091 30.302C77.6955 29.7457 77.0068 28.9573 76.5439 27.9378C76.2606 27.3148 76.0973 26.6278 76.0267 25.8909H91.5756C91.6813 25.5996 91.7544 25.2549 91.794 24.8578C91.834 24.4604 91.8536 24.0768 91.8536 23.7051C91.8536 22.2485 91.6152 20.8911 91.1384 19.6322C90.662 18.3741 89.9729 17.2544 89.0736 16.2745L89.0732 16.2741ZM76.1373 21.9168C76.2251 21.4585 76.3386 21.0214 76.5039 20.6252C76.9407 19.5787 77.5824 18.7842 78.4299 18.2409C79.2769 17.6976 80.2427 17.426 81.329 17.426C82.4671 17.426 83.4399 17.7042 84.2477 18.2609C85.0548 18.8169 85.6377 19.5721 85.9953 20.5259C86.1582 20.961 86.2512 21.4266 86.2904 21.9168H76.1373Z" fill="#242323"/>
<path d="M100.986 5.14673H95.7842V35.2291H100.986V5.14673Z" fill="#242323"/>
<path d="M123.385 16.2741C122.484 15.2941 121.392 14.5254 120.108 13.9686C118.823 13.4127 117.334 13.1345 115.641 13.1345C113.628 13.1345 111.808 13.6251 110.18 14.6046C108.551 15.5854 107.267 16.9162 106.328 18.5987C105.387 20.2812 104.918 22.2084 104.918 24.3807C104.918 26.4738 105.381 28.3814 106.308 30.1027C107.234 31.8252 108.532 33.1891 110.2 34.196C111.868 35.2029 113.814 35.7058 116.038 35.7058C117.52 35.7058 118.877 35.4807 120.108 35.0302C121.34 34.5804 122.405 33.9575 123.306 33.163C124.205 32.3681 124.867 31.4539 125.291 30.4209L122.924 29.2592C121.959 28.7853 120.813 28.9724 120.023 29.7024C119.748 29.9556 119.446 30.1819 119.116 30.3813C118.282 30.8845 117.269 31.1361 116.078 31.1361C114.887 31.1361 113.834 30.8584 112.921 30.302C112.007 29.7457 111.318 28.9573 110.855 27.9378C110.572 27.3148 110.409 26.6278 110.338 25.8909H125.887C125.993 25.5996 126.066 25.2549 126.105 24.8578C126.145 24.4604 126.165 24.0768 126.165 23.7051C126.165 22.2485 125.927 20.8911 125.45 19.6322C124.974 18.3741 124.284 17.2544 123.385 16.2745L123.385 16.2741ZM110.449 21.9168C110.537 21.4585 110.65 21.0214 110.815 20.6252C111.252 19.5787 111.894 18.7842 112.741 18.2409C113.588 17.6976 114.554 17.426 115.641 17.426C116.779 17.426 117.751 17.7042 118.559 18.2609C119.366 18.8169 119.949 19.5721 120.307 20.5259C120.47 20.961 120.563 21.4266 120.602 21.9168H110.449Z" fill="#242323"/>
<path d="M146.219 16.1054C145.54 15.2958 144.754 14.6406 143.857 14.148C142.626 13.4723 141.202 13.1345 139.588 13.1345C137.602 13.1345 135.828 13.5912 134.266 14.5054C132.703 15.4195 131.473 16.6711 130.573 18.2609C129.672 19.8507 129.223 21.6652 129.223 23.7047C129.223 25.7185 129.672 27.5338 130.573 29.1489C131.472 30.7652 132.717 32.0368 134.306 32.9641C135.895 33.8917 137.694 34.3549 139.707 34.3549C141.296 34.3549 142.711 34.0241 143.956 33.3615C144.716 32.9575 145.37 32.4204 145.942 31.7791V34.1564C145.942 35.2164 145.717 36.1236 145.267 36.8785C144.816 37.6334 144.187 38.2097 143.38 38.6068C142.572 39.0046 141.639 39.2028 140.581 39.2028C139.204 39.2028 138.045 38.8911 137.106 38.269C136.731 38.021 136.407 37.7429 136.131 37.4345C135.358 36.5677 134.157 36.2262 133.07 36.6363C131.485 37.2343 130.945 39.2612 132.088 40.5132C132.231 40.67 132.381 40.8232 132.539 40.9719C133.531 41.9118 134.716 42.6466 136.093 43.1777C137.469 43.7066 138.965 43.9721 140.58 43.9721C142.645 43.9721 144.465 43.5481 146.041 42.7006C147.616 41.8526 148.861 40.6868 149.774 39.2036C150.687 37.7196 151.144 36.0379 151.144 34.1572V13.612H148.712C147.336 13.612 146.219 14.7288 146.219 16.1062V16.1054ZM145.227 26.765C144.75 27.6396 144.095 28.3213 143.261 28.8115C142.427 29.3021 141.454 29.5463 140.342 29.5463C139.23 29.5463 138.243 29.2947 137.383 28.7915C136.522 28.2886 135.848 27.5991 135.358 26.7254C134.868 25.8508 134.623 24.8574 134.623 23.7451C134.623 22.6329 134.868 21.6329 135.358 20.7445C135.848 19.8572 136.529 19.162 137.403 18.6584C138.276 18.1555 139.256 17.9035 140.342 17.9035C141.427 17.9035 142.387 18.1555 143.221 18.6584C144.055 19.1616 144.716 19.8572 145.206 20.7445C145.696 21.6329 145.941 22.632 145.941 23.7451C145.941 24.8844 145.703 25.8909 145.226 26.765H145.227Z" fill="#242323"/>
<path d="M162.84 14.3269C162.016 14.8155 161.362 15.5961 160.874 16.663V16.1916C160.874 14.7664 159.72 13.6113 158.295 13.6113H155.989V35.2295H161.192V23.1888C161.192 21.5468 161.641 20.2682 162.541 19.3541C163.441 18.4399 164.633 17.9832 166.116 17.9832H167.983V13.3735H166.712C165.203 13.3735 163.912 13.6909 162.84 14.3269Z" fill="#242323"/>
<path d="M187.164 14.6046C185.442 13.6251 183.523 13.1345 181.405 13.1345C179.261 13.1345 177.328 13.6251 175.607 14.6046C173.886 15.5854 172.515 16.9236 171.497 18.6187C170.477 20.3143 169.968 22.2485 169.968 24.4208C169.968 26.593 170.477 28.5276 171.497 30.2228C172.515 31.9184 173.892 33.2561 175.626 34.2361C177.36 35.2168 179.286 35.7062 181.405 35.7062C183.496 35.7062 185.402 35.2168 187.123 34.2361C188.844 33.2561 190.221 31.9184 191.254 30.2228C192.286 28.5276 192.802 26.593 192.802 24.4208C192.802 22.2219 192.293 20.2812 191.274 18.5991C190.254 16.9166 188.884 15.5854 187.163 14.605L187.164 14.6046ZM186.588 27.7784C186.071 28.7719 185.37 29.5468 184.483 30.1031C183.596 30.6594 182.57 30.938 181.405 30.938C180.214 30.938 179.167 30.6599 178.268 30.1031C177.367 29.5468 176.66 28.7719 176.143 27.7784C175.627 26.785 175.369 25.6662 175.369 24.4208C175.369 23.1492 175.627 22.0304 176.143 21.0627C176.66 20.0962 177.367 19.3279 178.268 18.758C179.168 18.1886 180.214 17.9039 181.405 17.9039C182.57 17.9039 183.596 18.1886 184.483 18.758C185.37 19.3279 186.072 20.0962 186.588 21.0627C187.104 22.0304 187.362 23.1492 187.362 24.4208C187.362 25.6662 187.104 26.785 186.588 27.7784Z" fill="#242323"/>
<path d="M210.237 26.2879C210.237 27.2417 210.052 28.0635 209.681 28.7518C209.31 29.4413 208.794 29.9772 208.132 30.3612C207.47 30.7456 206.716 30.9376 205.869 30.9376C205.022 30.9376 204.26 30.7456 203.585 30.3612C202.91 29.9772 202.394 29.447 202.037 28.7714C201.679 28.0958 201.5 27.3078 201.5 26.4071V13.6108H196.298V26.8438C196.298 28.6191 196.622 30.1688 197.271 31.4931C197.919 32.8182 198.859 33.8517 200.091 34.593C201.321 35.3344 202.771 35.7053 204.439 35.7053C205.974 35.7053 207.318 35.374 208.47 34.7119C209.335 34.2152 210.016 33.5314 210.515 32.6605C210.515 34.0788 211.664 35.2286 213.082 35.2286H215.439V13.6104H210.237V26.287V26.2879Z" fill="#242323"/>
<path d="M241.55 18.6981C240.583 17.0029 239.279 15.6516 237.638 14.6452C235.996 13.6383 234.156 13.135 232.118 13.135C230.45 13.135 228.981 13.4598 227.709 14.1084C226.688 14.63 225.847 15.3261 225.168 16.1806V13.6117H220.283V40.5978C220.283 42.023 221.438 43.1781 222.862 43.1781H222.907C224.331 43.1781 225.486 42.023 225.486 40.5978V33.1194C226.126 33.7925 226.88 34.3505 227.769 34.7733C229.08 35.395 230.516 35.7067 232.079 35.7067C234.17 35.7067 236.036 35.2104 237.678 34.217C239.319 33.2235 240.617 31.8662 241.57 30.1436C242.523 28.4223 243 26.5147 243 24.4217C243 22.3025 242.516 20.3949 241.55 18.6989V18.6981ZM236.824 27.7981C236.308 28.7789 235.586 29.5464 234.66 30.1028C233.733 30.6591 232.674 30.9377 231.483 30.9377C230.344 30.9377 229.318 30.6595 228.405 30.1028C227.491 29.5464 226.776 28.7785 226.26 27.7981C225.744 26.8186 225.486 25.6924 225.486 24.4204C225.486 23.1754 225.744 22.0558 226.26 21.0623C226.776 20.0689 227.491 19.294 228.405 18.7377C229.318 18.1813 230.344 17.9036 231.483 17.9036C232.674 17.9036 233.733 18.1883 234.66 18.7577C235.586 19.3275 236.308 20.0959 236.824 21.0623C237.34 22.03 237.598 23.1488 237.598 24.4204C237.598 25.692 237.34 26.8186 236.824 27.7981Z" fill="#242323"/>
<path d="M67.5313 18.2523C68.8037 18.2523 69.8353 17.2201 69.8353 15.9469C69.8353 14.6736 68.7992 13.6308 67.5207 13.6308H62.6584V8.73315H57.4876V10.3916C57.4876 11.4454 57.1978 12.2481 56.6193 12.8012C56.0405 13.3543 55.2241 13.6308 54.1721 13.6308H53.7773V18.2519H57.4876V27.731C57.4876 30.1537 58.1518 32.0299 59.4809 33.3595C60.8092 34.6895 62.6842 35.3541 65.1057 35.3541L67.5648 35.3557C68.8184 35.3557 69.8353 34.3386 69.8353 33.0837C69.8353 31.8289 68.8188 30.8118 67.5648 30.8118H66.4091C66.3483 30.8118 66.3067 30.8118 66.2899 30.8118C65.4474 30.8118 64.7567 30.6803 64.2174 30.4164C63.6778 30.1537 63.283 29.7714 63.0332 29.2714C62.7825 28.7714 62.658 28.1653 62.658 27.4545V18.2519H67.5309L67.5313 18.2523Z" fill="#242323"/>
</g>
<defs>
<clipPath id="clip0_258_70">
<rect width="243" height="44" fill="white"/>
</clipPath>
</defs>
</svg>
