<svg width="164" height="52" viewBox="0 0 164 52" fill="none" xmlns="http://www.w3.org/2000/svg">
<g clip-path="url(#clip0_258_34)">
<path d="M25.6698 0.179199C16.222 0.179199 8.02195 5.28954 3.56543 12.9102L8.4676 18.2895H15.0633V38.7309L21.748 31.1999V18.2895H27.3633L32.1763 12.9102H10.4285C14.172 8.51713 19.6089 5.82748 25.6698 5.82748C36.722 5.82748 45.7241 14.8826 45.7241 25.9999C45.7241 27.0758 45.635 28.062 45.4567 29.1378L50.0024 34.1585C50.8046 31.5585 51.3393 28.8689 51.3393 25.9999C51.4285 11.7447 39.9306 0.179199 25.6698 0.179199Z" fill="#242323"/>
<path d="M48.0413 38.7308L43.1391 33.3515H36.5435V12.9102L29.8587 20.4412V33.3515H24.3326L19.5196 38.7308H41.2674C37.613 43.3033 31.9978 46.1722 25.6696 46.1722C14.6174 46.1722 5.61522 37.1171 5.61522 25.9998C5.61522 24.7446 5.70435 23.5791 5.97174 22.4136L1.51522 17.4826C0.534783 20.0826 0 22.9515 0 25.9998C0 40.255 11.4978 51.8205 25.6696 51.8205C35.2957 51.8205 43.6739 46.6205 48.0413 38.7308Z" fill="#242323"/>
<path d="M82.8018 26.2687V15.3308H77.8105V12.9998H90.1105V15.3308H85.1192V26.2687H82.8018Z" fill="#242323"/>
<path d="M97.7758 26.2688C96.8845 26.2688 95.9932 26.0895 95.191 25.7308C94.3888 25.3722 93.7649 24.924 93.141 24.2964C92.6062 23.6688 92.1606 22.9515 91.8041 22.1446C91.4475 21.3377 91.3584 20.4412 91.3584 19.455C91.3584 18.4688 91.5367 17.5722 91.8041 16.7653C92.1606 15.9584 92.6062 15.2412 93.141 14.7033C93.6758 14.1653 94.3888 13.7171 95.191 13.3584C95.9932 13.0895 96.7954 12.9102 97.7758 12.9102H100.984C101.965 12.9102 102.856 13.0895 103.569 13.3584C104.371 13.7171 105.084 14.0757 105.619 14.7033C106.154 15.2412 106.6 15.9584 106.956 16.7653C107.313 17.5722 107.402 18.4688 107.402 19.3653C107.402 20.3515 107.224 21.2481 106.956 22.055C106.6 22.8619 106.154 23.5791 105.619 24.2067C105.084 24.8343 104.371 25.2826 103.569 25.6412C102.767 25.9998 101.876 26.1791 100.984 26.1791H97.7758V26.2688ZM100.984 23.9377C101.608 23.9377 102.143 23.8481 102.678 23.5791C103.213 23.3998 103.658 23.0412 104.015 22.6826C104.371 22.3239 104.639 21.8757 104.906 21.3377C105.084 20.7998 105.174 20.2619 105.174 19.6343C105.174 19.0067 105.084 18.4688 104.906 17.9308C104.728 17.3929 104.371 16.9446 104.015 16.586C103.658 16.2274 103.213 15.8688 102.678 15.6895C102.143 15.5102 101.608 15.3308 100.984 15.3308H97.7758C97.1519 15.3308 96.6171 15.4205 96.1714 15.6895C95.6367 15.8688 95.2801 16.2274 94.8345 16.586C94.478 16.9446 94.2106 17.3929 93.9432 17.9308C93.7649 18.4688 93.6758 19.0067 93.6758 19.6343C93.6758 20.2619 93.7649 20.7998 93.9432 21.3377C94.1214 21.8757 94.478 22.3239 94.8345 22.6826C95.191 23.0412 95.6367 23.3998 96.1714 23.5791C96.7062 23.7584 97.241 23.9377 97.7758 23.9377H100.984Z" fill="#242323"/>
<path d="M113.195 26.2687V15.3308H108.204V12.9998H120.504V15.3308H115.513V26.2687H113.195Z" fill="#242323"/>
<path d="M133.696 26.2688L131.735 22.9515H125.496L126.565 21.0688H130.576L127.635 16.1377L121.663 26.3584H118.989L126.565 13.6274C126.654 13.3584 126.833 13.1791 127.011 13.0895C127.189 12.9998 127.368 12.9102 127.635 12.9102C127.902 12.9102 128.081 12.9998 128.259 13.0895C128.437 13.1791 128.615 13.4481 128.704 13.6274L136.281 26.3584H133.696V26.2688Z" fill="#242323"/>
<path d="M138.687 26.2687V12.9998H141.004V23.9377H149.917V26.2687H138.687Z" fill="#242323"/>
<path d="M66.4017 31.9171H63.6387V31.0205H70.0561V31.9171H67.293V39.2688H66.4017V31.9171Z" fill="#242323"/>
<path d="M75.0469 31.1101H78.523C79.5034 31.1101 80.3056 31.3791 80.8404 31.917C81.1969 32.2756 81.4643 32.9032 81.4643 33.5308C81.4643 34.8756 80.573 35.6825 79.236 35.9515L81.7317 39.2687H80.573L78.2556 36.1308H75.9382V39.2687H75.0469V31.1101ZM78.4338 35.2342C79.6817 35.2342 80.4838 34.6067 80.4838 33.5308C80.4838 32.5446 79.6817 31.917 78.4338 31.917H75.9382V35.2342H78.4338Z" fill="#242323"/>
<path d="M89.6644 31.0205H90.5557L94.2992 39.2688H93.3187L92.3383 37.1171H87.8818L86.9013 39.2688H85.9209L89.6644 31.0205ZM91.8926 36.2205L90.0209 32.0964L88.2383 36.2205H91.8926Z" fill="#242323"/>
<path d="M99.1126 31.1101H100.004L105.084 37.6549V31.1101H105.976V39.2687H105.173L99.9147 32.5446V39.2687H99.0234V31.1101H99.1126Z" fill="#242323"/>
<path d="M110.967 38.0136L111.502 37.2964C112.304 38.1033 113.195 38.4619 114.265 38.4619C115.334 38.4619 116.047 37.8343 116.047 37.1171C116.047 36.3998 115.602 35.9515 113.908 35.5929C112.036 35.1446 111.145 34.6067 111.145 33.2619C111.145 32.0067 112.304 31.0205 113.819 31.0205C114.978 31.0205 115.869 31.3791 116.671 32.0067L116.136 32.724C115.423 32.0964 114.621 31.8274 113.819 31.8274C112.749 31.8274 112.125 32.455 112.125 33.1722C112.125 33.9791 112.571 34.3377 114.354 34.786C116.136 35.1446 117.028 35.8619 117.028 37.1171C117.028 38.5515 115.869 39.4481 114.265 39.4481C113.017 39.3584 111.947 38.9102 110.967 38.0136Z" fill="#242323"/>
<path d="M122.108 31.1101H125.139C127.011 31.1101 128.169 32.0963 128.169 33.7101C128.169 35.5032 126.743 36.3998 124.961 36.3998H123V39.2687H122.108V31.1101ZM125.05 35.5032C126.387 35.5032 127.278 34.786 127.278 33.7101C127.278 32.5446 126.387 31.917 125.139 31.917H123.089V35.5032H125.05Z" fill="#242323"/>
<path d="M132.804 35.1447C132.804 32.9033 134.497 30.9309 136.993 30.9309C139.488 30.9309 141.093 32.9033 141.093 35.1447C141.093 37.3861 139.399 39.3585 136.904 39.3585C134.408 39.3585 132.804 37.3861 132.804 35.1447ZM140.112 35.1447C140.112 33.2619 138.775 31.7378 136.904 31.7378C135.032 31.7378 133.695 33.2619 133.695 35.055C133.695 36.9378 135.032 38.4619 136.904 38.4619C138.775 38.5516 140.112 37.0275 140.112 35.1447Z" fill="#242323"/>
<path d="M146.263 31.1101H149.739C150.719 31.1101 151.521 31.3791 152.056 31.917C152.413 32.2756 152.68 32.9032 152.68 33.5308C152.68 34.8756 151.789 35.6825 150.452 35.9515L152.947 39.2687H151.789L149.471 36.1308H147.154V39.2687H146.263V31.1101ZM149.65 35.2342C150.897 35.2342 151.7 34.6067 151.7 33.5308C151.7 32.5446 150.897 31.917 149.65 31.917H147.154V35.2342H149.65Z" fill="#242323"/>
<path d="M159.9 31.9171H157.137V31.0205H163.554V31.9171H160.791V39.2688H159.9V31.9171Z" fill="#242323"/>
</g>
<defs>
<clipPath id="clip0_258_34">
<rect width="164" height="52" fill="white"/>
</clipPath>
</defs>
</svg>
