<svg width="141" height="44" viewBox="0 0 141 44" fill="none" xmlns="http://www.w3.org/2000/svg">
<path d="M69.3575 11.9941H74.0835L66.2775 32.006H61.2744L53.4521 11.9941H58.1781L63.7841 27.2149L69.3575 11.9941Z" fill="#242323"/>
<path d="M91.8959 11.994H96.1493V32.0058H91.8959V29.1214C90.3042 31.3969 87.6631 32.7051 84.8884 32.5925C82.2156 32.6215 79.6564 31.5137 77.8484 29.5451C75.9171 27.5166 74.8783 24.7994 74.9639 21.9999C74.8955 19.2165 75.9463 16.5221 77.8809 14.5199C79.6697 12.5356 82.2169 11.4041 84.8884 11.4073C87.6418 11.2688 90.2784 12.5319 91.8959 14.7643V11.994ZM81.0425 26.6606C83.567 29.0923 87.5625 29.0923 90.087 26.6606C91.2922 25.4334 91.9453 23.7681 91.8959 22.0488C91.9492 20.3432 91.2944 18.6916 90.087 17.4858C87.5625 15.0541 83.567 15.0541 81.0425 17.4858C79.835 18.6916 79.1803 20.3432 79.2335 22.0488C79.1975 23.7513 79.8496 25.3964 81.0425 26.6117V26.6606Z" fill="#242323"/>
<path d="M114.825 11.9941H119.551L111.745 32.006H106.742L98.9355 11.9941H103.662L109.186 27.1986L114.825 11.9941Z" fill="#242323"/>
<path d="M124.912 23.8416C125.165 25.2544 125.953 26.5153 127.112 27.3616C128.354 28.1916 129.824 28.6132 131.317 28.5675C133.356 28.6923 135.312 27.7478 136.483 26.0742L140.052 28.1601C138.119 31.0845 134.785 32.77 131.284 32.5927C128.361 32.7199 125.512 31.6487 123.397 29.6268C121.397 27.6277 120.312 24.8914 120.398 22.0653C120.289 19.2236 121.363 16.4638 123.364 14.4437C125.366 12.4235 128.116 11.3241 130.958 11.4075C133.696 11.3242 136.331 12.4509 138.161 14.4875C140.043 16.5172 141.061 19.2003 140.997 21.9675C140.984 22.5735 140.929 23.1778 140.834 23.7764L124.912 23.8416ZM124.912 20.3216H136.678C136.311 17.4643 133.838 15.3505 130.958 15.4327C129.507 15.3797 128.085 15.848 126.949 16.7527C125.857 17.6582 125.123 18.9236 124.88 20.3216H124.912Z" fill="#242323"/>
<path d="M9.10972 0H0L5.47561 10.9348H0.586673L3.19411 17.7467H8.84898L11.1957 22.3585H5.47561L8.58823 29.1704H14.8461L22.3913 44L29.4151 29.1704L35.1352 28.9259L38.7856 22.1141H33.0655L35.1515 17.7304H40.6108L44.0004 10.6904H38.5411L43.7397 0H34.3692L22.1306 25.7644L9.10972 0Z" fill="#242323"/>
</svg>
