<?xml version="1.0" encoding="UTF-8"?>
<svg id="Layer_1" xmlns="http://www.w3.org/2000/svg" version="1.1" viewBox="0 0 252 42">
  <!-- Generator: Adobe Illustrator 29.8.2, SVG Export Plug-In . SVG Version: 2.1.1 Build 3)  -->
  <defs>
    <style>
      .st0 {
        fill: #fff;
      }
    </style>
  </defs>
  <g>
    <path class="st0" d="M.3,40.9v-1.1l1-.3c.7-.2,1.2-.6,1.4-1,.2-.4.4-.9.4-1.6V10.5c0-.7-.1-1.3-.3-1.7-.3-.4-.8-.7-1.4-1l-1-.3v-1.1h12.9v1.1l-.9.3c-.7.2-1.1.6-1.4,1-.2.4-.4.9-.4,1.6v12h13v-12c0-.7-.1-1.2-.4-1.6-.2-.4-.7-.7-1.4-1l-.8-.3v-1.1h12.9v1.1l-1,.3c-.7.2-1.1.6-1.4,1s-.4.9-.4,1.6v26.5c0,.7.1,1.2.4,1.6.3.4.7.7,1.4,1l1,.3v1.1h-12.9v-1.1l.8-.3c.7-.2,1.2-.6,1.4-1,.2-.4.4-.9.4-1.6v-13h-13v13c0,.7.1,1.2.4,1.6.3.4.7.7,1.4,1l.8.3v1.1s-12.9,0-12.9,0Z"/>
    <path class="st0" d="M42.7,41.6c-2,0-3.7-.6-5-1.7-1.4-1.1-2.1-2.8-2.1-4.9,0-1.7.8-3.2,2.4-4.6,1.6-1.4,4.2-2.4,7.6-3.1.6-.1,1.3-.3,2.1-.4s1.6-.3,2.3-.4v-3.7c0-2.4-.3-4-.9-4.9-.6-.9-1.5-1.4-2.8-1.4h-.2c-.8,0-1.4.3-1.9.8s-.8,1.3-.9,2.5l-.2.7c-.1,1.4-.5,2.4-1.1,3.1-.6.6-1.4,1-2.3,1s-1.6-.3-2.2-.8c-.6-.5-.9-1.2-.9-2.1,0-1.4.5-2.6,1.5-3.6s2.3-1.7,3.9-2.2c1.6-.5,3.4-.7,5.2-.7,3.1,0,5.5.7,7.1,2.2,1.6,1.5,2.5,3.9,2.5,7.3v11.6c0,1.5.7,2.2,2.1,2.2h1.2l.5.6c-.6.8-1.3,1.4-2.1,1.9-.8.4-1.8.7-3.1.7-1.5,0-2.7-.4-3.6-1.1-.9-.7-1.5-1.7-1.7-2.8-1.1,1.2-2.2,2.1-3.3,2.9-1,.6-2.4.9-4.1.9ZM45.7,38.3c.7,0,1.4-.2,2-.5s1.4-.8,2.3-1.6v-8.4c-.9.1-1.8.3-2.8.5-1.5.3-2.7,1-3.6,1.9-.9.9-1.4,2.2-1.4,3.8,0,1.4.3,2.4,1,3.1.7.9,1.5,1.2,2.5,1.2Z"/>
    <path class="st0" d="M61.8,40.9v-1l.8-.3c.7-.2,1.2-.5,1.4-.9.3-.4.4-1,.4-1.7v-15.2c0-.8-.2-1.3-.4-1.7-.2-.4-.7-.7-1.4-.8l-.8-.3v-.9l8.5-3,.6.6.5,4.6v.4c.5-1,1.2-1.9,2-2.7.8-.8,1.7-1.5,2.6-2s1.9-.8,2.8-.8c1.3,0,2.3.3,3,1s1,1.6,1,2.7c0,1.2-.3,2.1-1,2.7s-1.5.9-2.4.9c-1.4,0-2.6-.6-3.6-1.9l-.1-.1c-.3-.4-.7-.7-1.2-.7-.4-.1-.9.2-1.3.7-.3.3-.7.8-1,1.2-.3.5-.6,1-.8,1.6v13.7c0,.7.1,1.2.4,1.6.3.4.7.7,1.4.9l1.6.5v1h-13v-.1Z"/>
    <path class="st0" d="M92.1,41.6l-8.6-.7v-1l.5-.1c1.4-.3,2-1.2,2-2.6V10.1c0-.7-.1-1.2-.4-1.6-.3-.4-.7-.7-1.4-.8l-.7-.2v-1l8.9-2.2.7.5-.1,7.3v5.5c2.5-1.7,5.1-2.5,8-2.5s5.3,1.1,7.3,3.2c1.9,2.1,2.9,5.4,2.9,9.9,0,3-.5,5.4-1.5,7.4s-2.3,3.5-3.9,4.5-3.4,1.5-5.4,1.5c-1.3,0-2.6-.2-3.9-.5s-2.5-.9-3.5-1.6l-.9,2.1ZM97.9,39.3c1.1,0,2.2-.3,3-1,.9-.7,1.5-1.8,2-3.4.5-1.6.7-3.8.7-6.6s-.2-5-.7-6.5c-.5-1.6-1.1-2.7-2-3.3-.9-.6-1.9-.9-3.1-.9-1.6,0-3.2.5-4.8,1.4v19c1.6.9,3.1,1.3,4.9,1.3Z"/>
    <path class="st0" d="M122.5,41.6c-1.7,0-3.2-.2-4.5-.5-1.3-.4-2.6-.9-3.8-1.5v-6.2h1.4l1.6,3c.7,1.3,1.4,2.2,2.3,2.9.9.6,1.9.9,3.3.9,1.6,0,2.9-.4,3.9-1.1,1-.7,1.5-1.7,1.5-2.9,0-1.1-.4-2-1.1-2.7s-2-1.3-3.9-1.9l-2.3-.7c-2.1-.6-3.7-1.6-4.9-2.8-1.2-1.3-1.8-2.9-1.8-4.8,0-1.5.4-2.9,1.2-4.1.8-1.2,2-2.2,3.5-2.9,1.5-.7,3.4-1.1,5.6-1.1,1.4,0,2.7.2,3.9.5s2.4.8,3.5,1.4l-.3,5.6h-1.4l-1.6-3c-.6-1.1-1.1-1.9-1.7-2.3s-1.5-.7-2.6-.7c-1.3,0-2.4.3-3.3,1-1,.6-1.4,1.5-1.4,2.7,0,1.1.4,2,1.2,2.6.8.7,2.1,1.3,3.9,1.9l2.2.7c2.5.8,4.3,1.9,5.4,3.2,1.1,1.3,1.6,2.9,1.6,4.7,0,2.5-1,4.5-2.9,6-2.1,1.4-4.9,2.1-8.5,2.1Z"/>
    <path class="st0" d="M146,41.6c-2.2,0-3.9-.5-5.1-1.6-1.2-1.1-1.9-2.8-1.9-5.2v-17.3h-3.7v-1.1l1.4-.2c1-.2,1.9-.5,2.6-.9.7-.5,1.4-1.1,2-1.9l3.4-4.7h1.6l-.2,7.3h5.9v1.6h-6v17.8c0,1.3.3,2.2.8,2.8s1.2.9,2,.9c.7,0,1.3-.2,1.9-.5.6-.3,1.1-.8,1.7-1.3l.7.8c-.7,1.1-1.6,2-2.8,2.7-1.1.5-2.5.8-4.3.8Z"/>
    <path class="st0" d="M167.8,41.6c-2.6,0-4.8-.5-6.8-1.6-1.9-1.1-3.4-2.6-4.5-4.6s-1.6-4.3-1.6-7.1c0-2.7.6-5.1,1.7-7.1,1.1-2,2.7-3.5,4.6-4.6,1.9-1.1,4.1-1.6,6.5-1.6s4.6.5,6.6,1.6c1.9,1.1,3.5,2.6,4.6,4.5,1.1,2,1.7,4.3,1.7,7.1,0,2.7-.5,5.1-1.6,7.1s-2.5,3.5-4.5,4.6c-1.8,1.2-4.1,1.7-6.7,1.7ZM167.8,40.2c1.3,0,2.3-.3,3.1-1s1.3-1.9,1.7-3.6c.3-1.7.5-4.1.5-7.2s-.2-5.5-.5-7.2-.9-2.9-1.7-3.6-1.8-1-3.1-1-2.3.3-3,1c-.8.7-1.3,1.9-1.7,3.6s-.5,4.1-.5,7.2.2,5.4.5,7.2c.4,1.7.9,2.9,1.7,3.6.8.6,1.8,1,3,1Z"/>
    <path class="st0" d="M183.1,40.9v-1l.8-.2c1.1-.3,1.7-1.2,1.7-2.6v-15.4c0-.7-.2-1.3-.4-1.7-.2-.4-.7-.7-1.4-.8l-.8-.2v-.9l8.5-3,.6.6.4,3.2c1.3-1.1,2.7-2,4.2-2.7,1.5-.7,3.1-1.1,4.6-1.1,2.3,0,4.1.6,5.3,1.9s1.9,3.2,1.9,5.7v14.5c0,1.4.6,2.2,1.9,2.6l.6.2v1h-12v-1l.8-.2c1.1-.4,1.7-1.2,1.7-2.6v-15.6c0-1.2-.3-2.1-.8-2.7s-1.4-.8-2.6-.8c-1.7,0-3.5.7-5.3,2.2v16.8c0,1.4.6,2.2,1.8,2.6l.5.2v1s-12,0-12,0Z"/>
    <path class="st0" d="M226.1,15.1c2.2,0,4.1.5,5.6,1.4,1.6.9,2.8,2.1,3.6,3.7.9,1.6,1.3,3.4,1.3,5.5,0,.5,0,.9-.1,1.3,0,.4-.1.8-.2,1.1h-15.7c0,3.6.7,6.2,2,7.7,1.3,1.6,3.2,2.3,5.7,2.3,1.7,0,3.1-.3,4.2-.9,1.1-.6,2.1-1.4,3-2.4l.8.8c-1,1.9-2.5,3.4-4.3,4.5s-3.9,1.6-6.4,1.6-4.6-.5-6.5-1.6c-1.9-1-3.3-2.5-4.4-4.5-1.1-2-1.6-4.3-1.6-7.1,0-2.9.6-5.3,1.9-7.3,1.2-2,2.8-3.5,4.8-4.6,2.1-1,4.1-1.5,6.3-1.5ZM225.8,16.6c-1,0-1.9.3-2.6.9-.7.6-1.3,1.6-1.8,3-.4,1.4-.7,3.5-.8,6.1h9.3c.4-3.5.2-6.1-.4-7.6-.6-1.6-1.8-2.4-3.7-2.4Z"/>
  </g>
  <path class="st0" d="M245.7.4h-5.8c-3.3,0-6,2.7-6,6s2.7,6,6,6h5.8c3.3,0,6-2.7,6-6s-2.7-6-6-6ZM245.7,11.3h-5.8c-2.7,0-4.9-2.2-4.9-4.9s2.2-4.9,4.9-4.9h5.8c2.7,0,4.9,2.2,4.9,4.9s-2.2,4.9-4.9,4.9Z"/>
  <g>
    <path class="st0" d="M240.8,4.6l-1.3,3.6h-1.1l-1.3-3.6h.9l.9,2.7.9-2.7s1,0,1,0Z"/>
    <path class="st0" d="M244.6,4.6l-1.3,3.6h-1.1l-1.3-3.6h.9l.9,2.7.9-2.7s1,0,1,0Z"/>
    <path class="st0" d="M247.4,5.7c-.1-.1-.2-.2-.3-.3-.1-.1-.3-.1-.4-.1-.3,0-.5.1-.7.3-.2.2-.3.4-.3.8,0,.3.1.6.3.8s.4.3.7.3c.2,0,.4-.1.6-.2.1-.1.3-.3.3-.5h-1.1v-.6h1.9v.8c-.1.2-.2.4-.3.6-.2.2-.4.3-.6.5-.2.1-.5.2-.8.2-.4,0-.7-.1-1-.2-.3-.2-.5-.4-.7-.7-.2-.3-.2-.6-.2-1s.1-.7.2-1c.2-.3.4-.5.7-.7s.6-.2,1-.2.8.1,1.1.3c.3.2.5.5.6.9,0,0-1,0-1,0Z"/>
  </g>
</svg>